<?xml version="1.0" encoding="utf-8"?>
<!-- Generator: Adobe Illustrator 19.0.0, SVG Export Plug-In . SVG Version: 6.00 Build 0)  -->
<svg version="1.1" xmlns="http://www.w3.org/2000/svg" xmlns:xlink="http://www.w3.org/1999/xlink" x="0px" y="0px"
	 viewBox="-49 141 704.6 513.5" style="enable-background:new -49 141 704.6 513.5;" xml:space="preserve">
<style type="text/css">
	.st0{fill:#67B9CC;}
	.st1{fill:none;stroke:#894B9D;stroke-width:20;stroke-miterlimit:10;}
	.st2{fill:none;stroke:#F3D55B;stroke-width:20;stroke-miterlimit:10;}
	.st3{fill:none;stroke:#35495E;stroke-width:20;stroke-miterlimit:10;}
	.st4{fill:none;stroke:#D1D4D1;stroke-width:20;stroke-miterlimit:10;}
	.st5{fill:#FF5364;}
	.st6{fill:#DF4D60;}
	.st7{fill:#F3D55B;}
	.st8{fill:#D1D4D1;}
	.st9{fill:#955BA5;}
	.st10{fill:#894B9D;}
	.st11{fill:#ECF0F1;}
	.st12{fill:#547580;}
	.st13{fill:#802D40;}
	.st14{fill:#35495E;}
	.st15{display:none;fill:#67B9CC;}
</style>
<g id="Ebene_2">
	<g>
		<g>
			<circle class="st0" cx="399.8" cy="398.8" r="56.7"/>
			
				<ellipse transform="matrix(0.278 0.9606 -0.9606 0.278 671.7085 -96.1235)" class="st1" cx="399.8" cy="398.8" rx="81.1" ry="210.3"/>
			
				<ellipse transform="matrix(0.9709 0.2396 -0.2396 0.9709 107.1687 -84.1637)" class="st2" cx="399.8" cy="398.8" rx="81.1" ry="210.3"/>
			
				<ellipse transform="matrix(0.6929 -0.721 0.721 0.6929 -164.7437 410.722)" class="st3" cx="399.8" cy="398.8" rx="81.1" ry="210.3"/>
		</g>
		<circle class="st4" cx="399.8" cy="398.8" r="245.8"/>
	</g>
</g>
<g id="Ebene_1">
	<g id="_x30_06---Nervous-Unicorn">
		<path id="Path" class="st5" d="M365.9,626.5c-97.1,0-123.6-114.8-88.3-194.2c27.5-61.7,12.3-102,4.1-117.1c-2-3.6-1.2-8.2,2-10.9
			c9.5-8.2,16.6-19,20.3-31c0.9-2.7,1.4-5.5,1.4-8.4c94.5,7.8,77.4,124.6,60.4,167.3c-17.7,44.1,0,79.4,35.3,79.4
			c6.8,0.4,13.5-1.9,18.6-6.5c5.1-4.6,8-11,8.3-17.9c0.5-3.4,3-6.3,6.4-7.2c3.4-0.9,7,0.2,9.2,2.9c11.7,12.7,18.5,29.1,19.4,46.3
			c0,35,0,96.2-95,97.1H365.9L365.9,626.5z"/>
		<path id="Shape" class="st6" d="M374.7,591.2c-22.4-0.3-43.2-11.6-55.7-30.2c-20.6-30.9-26-69.6-14.5-104.9
			c1.7-5.1,3.5-10.3,5.4-15.7c16.7-47.3,35.7-100.9-18.9-143.8c-2.5-1.9-3.7-5.1-3.3-8.2s2.5-5.8,5.5-6.9c2.9-1.2,6.3-0.7,8.7,1.3
			c64.6,50.7,41.6,116,24.7,163.6c-1.8,5.3-3.6,10.4-5.3,15.4c-9.6,30-5.2,62.7,12,89.1c9.2,14,24.7,22.6,41.4,22.9
			c42.4,0,44.1-31.7,44.1-35.4c0-4.9,4-8.8,8.8-8.8c4.9,0,8.8,4,8.8,8.8C436.5,556.6,423.6,591.2,374.7,591.2L374.7,591.2z"/>
		<path id="Path_1_" class="st0" d="M189.3,185.1c56,0,78.7,33.3,85.6,47.1c-9.8,1-18.6,6.4-23.8,14.7c-2.2,2.9-4.3,5.6-6.5,8.1
			c-10.4-9.5-23.6-15.5-37.6-16.9c-3.5,0-7.1,0.3-10.6,0.9c0.4-1.5,0.7-2.8,1-4c0.7-3.4-0.7-6.8-3.5-8.8l-47.4-33.9
			C160.2,187.5,174.7,185,189.3,185.1z"/>
		<path id="Path_2_" class="st0" d="M97.8,225.1c3.9-4.5,8.1-8.6,12.7-12.4l18.5,37.1c-13,19.2-16.8,43.2-10.3,65.4
			c-16.2,8.8-37.4,5.7-42.9-19.8v-0.1c-0.9-4.3-1.3-8.7-1.2-13.2v-0.8C75.6,260.6,83.8,240.7,97.8,225.1z"/>
		<path id="Path_3_" class="st7" d="M146.4,192.3l47.4,33.9c2.8,2,4.2,5.4,3.5,8.8c-0.3,1.1-0.6,2.5-1,4c-6.1,0.9-12,2.7-17.6,5.3
			c-4.3,2-8.3,4.6-11.9,7.8c-8.2,7.3-12.8,17.7-12.8,28.6c-0.7,0.3-1.2,0.4-1.9,0.5c-4,1-8.1-1-9.9-4.7l-31.9-63.7L74.6,141
			L146.4,192.3z"/>
		<path id="Path_4_" class="st8" d="M74.6,211.6c9.8-0.8,19,4.6,23.2,13.5c-14,15.5-22.2,35.4-23.2,56.3
			c-16.6-2.7-28.2-17.8-26.5-34.5C48.1,238.1,48.1,211.6,74.6,211.6z"/>
		<path id="Path_5_" class="st9" d="M154.1,280.7c0-10.9,4.6-21.3,12.8-28.6c3.6-3.1,7.6-5.8,11.9-7.8c5.6-2.6,11.5-4.4,17.6-5.3
			c3.5-0.6,7-0.9,10.6-0.9c14,1.5,27.2,7.4,37.6,16.9c-10.9,13.4-24.2,24.5-39.3,32.8c-1.1,31.7,19.3,38.5,19.3,38.5
			c-7.4,6.1-16.9,9.3-26.5,8.8c-9.5-0.4-18.5-4.1-25.6-10.5c-12.3-10.6-19.1-26.2-18.5-42.5C154,281.7,154,281.2,154.1,280.7z"/>
		<path id="Path_6_" class="st10" d="M118.7,315.3c-6.5-22.3-2.7-46.2,10.3-65.4l13.3,26.7c1.8,3.7,5.9,5.7,9.9,4.7
			c0.6-0.2,1.1-0.3,1.9-0.5c-0.1,0.5-0.1,1.1-0.1,1.6c-0.5,16.2,6.3,31.8,18.5,42.5c-7.6,6.6-17.3,10.3-27.4,10.5
			C133,335,122.3,327,118.7,315.3L118.7,315.3z"/>
		<path id="Path_7_" class="st11" d="M-49,450c0-44.1,17.7-79.4,70.6-114.8c23.1-15.4,41.2-29.1,54.2-39.7
			c5.5,25.5,26.7,28.6,42.9,19.8c3.5,11.7,14.3,19.8,26.5,20c10.1-0.2,19.7-4,27.4-10.5c7.1,6.4,16.1,10.1,25.6,10.5
			c9.6,0.5,19.1-2.7,26.5-8.8c0,0-20.5-6.8-19.3-38.5c15.1-8.3,28.4-19.5,39.3-32.8c2.2-2.5,4.3-5.2,6.5-8.1
			c5.2-8.3,14-13.8,23.8-14.7c16.5-0.8,30.6,16.1,30.5,32.8c0,2.9-0.5,5.7-1.4,8.4c-3.7,12-10.8,22.7-20.3,31c-3.2,2.7-4,7.2-2,10.9
			c8.1,15,23.3,55.3-4.1,117.1c-35.3,79.4-8.8,194.2,88.3,194.2h2.1c4.2,3.8,7.9,8.1,10.9,12.8c1.8,2.7,1.9,6.2,0.4,9.1
			c-1.6,2.9-4.5,4.6-7.8,4.6h-266c-3.1,0-6-1.6-7.6-4.3c-1.6-2.7-1.7-6-0.2-8.7c6.3-10.8,13.3-21.2,20.9-31.1
			c9.1-12.4,14.2-27.3,14.5-42.7v-0.3c0.2-6-0.1-11.9-1-17.8c-0.1-0.1-0.1-0.3-0.1-0.4v-0.1c-3.4,1.1-7.1,2.1-10.8,3
			c-8.2,2-16.5,3.4-24.9,4.2c-7.3,0.8-14.6,1.2-21.9,1.1C-22.5,555.9-49,494.1-49,450L-49,450z"/>
		<path id="Path_8_" class="st8" d="M187,528c3.3,3.6,3,9.2-0.5,12.5c-15.5,12.6-33.8,21.4-53.3,25.6v-0.3c0.2-6-0.1-11.9-1-17.8
			c15.5-3.7,29.9-10.8,42.4-20.7C178.2,524.2,183.8,524.4,187,528z"/>
		<path id="Shape_1_" class="st12" d="M30.3,423.4c0-4.9,4-9,9-9c0.1-4.9,4.1-8.8,9-8.7s8.8,4.1,8.7,9c0.1,4.7-1.7,9.3-5.1,12.6
			c-3.3,3.3-7.9,5.2-12.6,5.1C34.3,432.3,30.3,428.3,30.3,423.4z"/>
		<path id="Shape_2_" class="st12" d="M-13.8,405.7c0-4.9,4-9,9-9c0.1-4.9,4.1-8.8,9-8.7s8.8,4.1,8.7,9c0.1,4.7-1.7,9.3-5.1,12.6
			c-3.3,3.3-7.9,5.2-12.6,5.1C-9.8,414.7-13.8,410.6-13.8,405.7z"/>
		<path id="Path_9_" class="st13" d="M12.8,467.6h53c4.9,0,8.8,4,8.8,8.8v8.8c0,19.5-15.8,35.3-35.3,35.3S4,504.8,4,485.3v-8.8
			C4,471.6,7.9,467.6,12.8,467.6z"/>
		<path id="Path_10_" class="st14" d="M203.4,423.5c2.4-5.6,3.6-11.6,3.6-17.7c0-19.5-11.8-35.3-26.5-35.3S154,386.3,154,405.8
			c0,6.1,1.2,12.1,3.6,17.7H203.4z"/>
		<path id="Path_11_" class="st8" d="M145.2,423.5c0-4.9,4-8.8,8.8-8.8h53c4.9,0,8.8,4,8.8,8.8s-4,8.8-8.8,8.8h-53
			C149.2,432.3,145.2,428.4,145.2,423.5z"/>
		<path id="Path_12_" class="st15" d="M233.5,467.6c0-3.3-1.9-6.4-4.9-7.9c-3-1.5-6.6-1.2-9.2,0.8l-17.7,13.2
			c-2.2,1.7-3.5,4.3-3.5,7.1v13.2c0,9.8,7.9,17.7,17.7,17.7c9.8,0,17.7-7.9,17.7-17.7L233.5,467.6L233.5,467.6z"/>
		<ellipse id="Oval" class="st11" cx="180.5" cy="392.6" rx="8.8" ry="13.2"/>
		<ellipse id="Oval_1_" class="st5" cx="39.3" cy="502.9" rx="30.5" ry="17.7"/>
	</g>
</g>
</svg>
