<?xml version="1.0" encoding="utf-8"?>
<!-- Generator: Adobe Illustrator 19.0.0, SVG Export Plug-In . SVG Version: 6.00 Build 0)  -->
<svg version="1.1" id="Ebene_1" xmlns="http://www.w3.org/2000/svg" xmlns:xlink="http://www.w3.org/1999/xlink" x="0px" y="0px"
	 viewBox="116 -25.9 843.9 843.9" style="enable-background:new 116 -25.9 843.9 843.9;" xml:space="preserve">
<style type="text/css">
	.st0{fill:#67B9CC;}
	.st1{fill:none;stroke:#894B9D;stroke-width:20;stroke-miterlimit:10;}
	.st2{fill:none;stroke:#F3D55B;stroke-width:20;stroke-miterlimit:10;}
	.st3{fill:none;stroke:#35495E;stroke-width:20;stroke-miterlimit:10;}
	.st4{fill:none;stroke:#D1D4D1;stroke-width:20;stroke-miterlimit:10;}
	.st5{fill:#FF5364;}
	.st6{fill:#DF4D60;}
	.st7{fill:#F3D55B;}
	.st8{fill:#D1D4D1;}
	.st9{fill:#955BA5;}
	.st10{fill:#894B9D;}
	.st11{fill:#ECF0F1;}
	.st12{fill:#547580;}
	.st13{fill:#802D40;}
	.st14{fill:#35495E;}
	.st15{display:none;fill:#67B9CC;}
	.st16{fill:none;}
</style>
<g id="Ebene_2">
</g>
<g id="Ebene_1_1_">
	<g>
		<g>
			<g>
				<circle class="st0" cx="627.7" cy="277.1" r="56.7"/>
				
					<ellipse transform="matrix(-0.278 -0.9606 0.9606 -0.278 535.9495 957.2321)" class="st1" cx="627.7" cy="277.2" rx="81.1" ry="210.3"/>
				
					<ellipse transform="matrix(-0.9709 -0.2396 0.2396 -0.9709 1170.8031 696.7366)" class="st2" cx="627.8" cy="277.2" rx="81.1" ry="210.3"/>
				
					<ellipse transform="matrix(-0.6929 0.721 -0.721 -0.6929 1262.4619 16.537)" class="st3" cx="627.7" cy="277.1" rx="81.1" ry="210.3"/>
			</g>
			<circle class="st4" cx="627.7" cy="277.1" r="245.8"/>
		</g>
		<g id="_x30_06---Nervous-Unicorn_2_">
			<path id="Path_26_" class="st5" d="M616.9,504.8c-97.1,0-123.6-114.8-88.3-194.2c27.5-61.7,12.3-102,4.1-117.1
				c-2-3.6-1.2-8.2,2-10.9c9.5-8.2,16.6-19,20.3-31c0.9-2.7,1.4-5.5,1.4-8.4c94.5,7.8,77.4,124.6,60.4,167.3
				c-17.7,44.1,0,79.4,35.3,79.4c6.8,0.4,13.5-1.9,18.6-6.5s8-11,8.3-17.9c0.5-3.4,3-6.3,6.4-7.2c3.4-0.9,7,0.2,9.2,2.9
				c11.7,12.7,18.5,29.1,19.4,46.3c0,35,0,96.2-95,97.1h-2.1L616.9,504.8L616.9,504.8z"/>
			<path id="Shape_6_" class="st6" d="M625.7,469.5c-22.4-0.3-43.2-11.6-55.7-30.2c-20.6-30.9-26-69.6-14.5-104.9
				c1.7-5.1,3.5-10.3,5.4-15.7c16.7-47.3,35.7-100.9-18.9-143.8c-2.5-1.9-3.7-5.1-3.3-8.2s2.5-5.8,5.5-6.9c2.9-1.2,6.3-0.7,8.7,1.3
				c64.6,50.7,41.6,116,24.7,163.6c-1.8,5.3-3.6,10.4-5.3,15.4c-9.6,30-5.2,62.7,12,89.1c9.2,14,24.7,22.6,41.4,22.9
				c42.4,0,44.1-31.7,44.1-35.4c0-4.9,4-8.8,8.8-8.8s8.8,4,8.8,8.8C687.5,434.9,674.5,469.5,625.7,469.5L625.7,469.5z"/>
			<path id="Path_12_" class="st0" d="M440.3,63.4c56,0,78.7,33.3,85.6,47.1c-9.8,1-18.6,6.4-23.8,14.7c-2.2,2.9-4.3,5.6-6.5,8.1
				c-10.4-9.5-23.6-15.5-37.6-16.9c-3.5,0-7.1,0.3-10.6,0.9c0.4-1.5,0.7-2.8,1-4c0.7-3.4-0.7-6.8-3.5-8.8l-47.4-33.9
				C411.2,65.8,425.7,63.3,440.3,63.4z"/>
			<path id="Path_11_" class="st0" d="M348.8,103.4c3.9-4.5,8.1-8.6,12.7-12.4l18.5,37.1c-13,19.2-16.8,43.2-10.3,65.4
				c-16.2,8.8-37.4,5.7-42.9-19.8v-0.1c-0.9-4.3-1.3-8.7-1.2-13.2v-0.8C326.6,138.9,334.7,119,348.8,103.4z"/>
			<path id="Path_10_" class="st7" d="M397.3,70.6l47.4,33.9c2.8,2,4.2,5.4,3.5,8.8c-0.3,1.1-0.6,2.5-1,4c-6.1,0.9-12,2.7-17.6,5.3
				c-4.3,2-8.3,4.6-11.9,7.8c-8.2,7.3-12.8,17.7-12.8,28.6c-0.7,0.3-1.2,0.4-1.9,0.5c-4,1-8.1-1-9.9-4.7l-31.9-63.7l-35.8-71.8
				L397.3,70.6z"/>
			<path id="Path_9_" class="st8" d="M325.5,89.9c9.8-0.8,19,4.6,23.2,13.5c-14,15.5-22.2,35.4-23.2,56.3
				c-16.6-2.7-28.2-17.8-26.5-34.5C299.1,116.4,299.1,89.9,325.5,89.9z"/>
			<path id="Path_8_" class="st9" d="M405.1,159c0-10.9,4.6-21.3,12.8-28.6c3.6-3.1,7.6-5.8,11.9-7.8c5.6-2.6,11.5-4.4,17.6-5.3
				c3.5-0.6,7-0.9,10.6-0.9c14,1.5,27.2,7.4,37.6,16.9c-10.9,13.4-24.2,24.5-39.3,32.8c-1.1,31.7,19.3,38.5,19.3,38.5
				c-7.4,6.1-16.9,9.3-26.5,8.8c-9.5-0.4-18.5-4.1-25.6-10.5c-12.3-10.6-19.1-26.2-18.5-42.5C405,160,405,159.5,405.1,159z"/>
			<path id="Path_7_" class="st10" d="M369.7,193.6c-6.5-22.3-2.7-46.2,10.3-65.4l13.3,26.7c1.8,3.7,5.9,5.7,9.9,4.7
				c0.6-0.2,1.1-0.3,1.9-0.5c-0.1,0.5-0.1,1.1-0.1,1.6c-0.5,16.2,6.3,31.8,18.5,42.5c-7.6,6.6-17.3,10.3-27.4,10.5
				C383.8,213.3,373.2,205.3,369.7,193.6L369.7,193.6z"/>
			<path id="Path_6_" class="st11" d="M202,328.3c0-44.1,17.7-79.4,70.6-114.8c23.1-15.4,41.2-29.1,54.2-39.7
				c5.5,25.5,26.7,28.6,42.9,19.8c3.5,11.7,14.3,19.8,26.5,20c10.1-0.2,19.7-4,27.4-10.5c7.1,6.4,16.1,10.1,25.6,10.5
				c9.6,0.5,19.1-2.7,26.5-8.8c0,0-20.5-6.8-19.3-38.5c15.1-8.3,28.4-19.5,39.3-32.8c2.2-2.5,4.3-5.2,6.5-8.1
				c5.2-8.3,14-13.8,23.8-14.7c16.5-0.8,30.6,16.1,30.5,32.8c0,2.9-0.5,5.7-1.4,8.4c-3.7,12-10.8,22.7-20.3,31
				c-3.2,2.7-4,7.2-2,10.9c8.1,15,23.3,55.3-4.1,117.1c-35.3,79.4-8.8,194.2,88.3,194.2h2.1c4.2,3.8,7.9,8.1,10.9,12.8
				c1.8,2.7,1.9,6.2,0.4,9.1c-1.6,2.9-4.5,4.6-7.8,4.6h-266c-3.1,0-6-1.6-7.6-4.3s-1.7-6-0.2-8.7c6.3-10.8,13.3-21.2,20.9-31.1
				c9.1-12.4,14.2-27.3,14.5-42.7v-0.3c0.2-6-0.1-11.9-1-17.8c-0.1-0.1-0.1-0.3-0.1-0.4v-0.1c-3.4,1.1-7.1,2.1-10.8,3
				c-8.2,2-16.5,3.4-24.9,4.2c-7.3,0.8-14.6,1.2-21.9,1.1C228.4,434.2,202,372.4,202,328.3L202,328.3z"/>
			<path id="Path_5_" class="st8" d="M438,406.3c3.3,3.6,3,9.2-0.5,12.5c-15.5,12.6-33.8,21.4-53.3,25.6v-0.3c0.2-6-0.1-11.9-1-17.8
				c15.5-3.7,29.9-10.8,42.4-20.7C429.2,402.5,434.7,402.7,438,406.3z"/>
			<path id="Shape_2_" class="st12" d="M281.2,301.7c0-4.9,4-9,9-9c0.1-4.9,4.1-8.8,9-8.7c4.9,0.1,8.8,4.1,8.7,9
				c0.1,4.7-1.7,9.3-5.1,12.6c-3.3,3.3-7.9,5.2-12.6,5.1C285.2,310.6,281.2,306.6,281.2,301.7z"/>
			<path id="Shape_1_" class="st12" d="M237.1,284c0-4.9,4-9,9-9c0.1-4.9,4.1-8.8,9-8.7s8.8,4.1,8.7,9c0.1,4.7-1.7,9.3-5.1,12.6
				c-3.3,3.3-7.9,5.2-12.6,5.1C241.2,293,237.1,288.9,237.1,284z"/>
			<path id="Path_4_" class="st13" d="M263.7,345.9h53c4.9,0,8.8,4,8.8,8.8v8.8c0,19.5-15.8,35.3-35.3,35.3s-35.3-15.8-35.3-35.3
				v-8.8C254.8,349.9,258.8,345.9,263.7,345.9z"/>
			<path id="Path_3_" class="st14" d="M454.3,301.8c2.4-5.6,3.6-11.6,3.6-17.7c0-19.5-11.8-35.3-26.5-35.3s-26.5,15.8-26.5,35.3
				c0,6.1,1.2,12.1,3.6,17.7H454.3z"/>
			<path id="Path_2_" class="st8" d="M396.2,301.8c0-4.9,4-8.8,8.8-8.8h53c4.9,0,8.8,4,8.8,8.8s-4,8.8-8.8,8.8h-53
				C400.1,310.6,396.2,306.7,396.2,301.8z"/>
			<path id="Path_1_" class="st15" d="M484.4,345.9c0-3.3-1.9-6.4-4.9-7.9s-6.6-1.2-9.2,0.8L452.6,352c-2.2,1.7-3.5,4.3-3.5,7.1
				v13.2c0,9.8,7.9,17.7,17.7,17.7c9.8,0,17.7-7.9,17.7-17.7v-26.4L484.4,345.9L484.4,345.9z"/>
			<ellipse id="Oval_4_" class="st11" cx="431.5" cy="270.9" rx="8.8" ry="13.2"/>
			<ellipse id="Oval_1_" class="st5" cx="290.2" cy="381.2" rx="30.5" ry="17.7"/>
		</g>
	</g>
</g>
<g id="Ebene_3">
	<rect x="116" y="-25.9" class="st16" width="843.9" height="843.9"/>
	<g>
		<path d="M177.5,598.5c12.3,0,23.9,3.9,34.8,11.6v-11.6h23v126.4c0,9.5,3.2,18.2,9.6,25.9c5.8,6.2,14.2,9.4,25.2,9.4v23h-0.5
			c-26.1,0-44-12.2-53.5-36.5c-2.5-7.7-3.7-14.7-3.7-21.2v-23c-10.9,7.6-21.7,11.3-32.5,11.3h-4.7c-12.4,0-24.4-4.8-36.1-14.4
			c-5.8-5.6-9.9-10.7-12.1-15.2c-4.7-9-7.1-17.7-7.1-26.2v-2.7c0-15.8,6.3-29.8,18.9-41.9C150.4,603.5,163.3,598.5,177.5,598.5z
			 M142.8,655.8v1c0,11.4,5.2,20.9,15.7,28.6c5.9,3.7,11.7,5.5,17.3,5.5h3.1c9.6,0,18.2-4.4,25.7-13.1c5.1-6.6,7.6-13.7,7.6-21.5
			c0-12.1-5.6-22-16.6-29.5c-6-3.5-12.1-5.3-18.1-5.3c-11.3,0-21,5.2-29.1,15.7C144.8,643.4,142.8,649.6,142.8,655.8z"/>
		<path d="M245.5,598.9h23v40.4c0.1,25,7,41.3,20.7,49.2c4.4,1.8,8.5,2.8,12.3,2.8h1.6c8.1,0,15.9-3.4,23.4-10.3
			c5.1-5.6,8.3-12.2,9.9-19.7c1.2-4.3,1.8-12.1,1.8-23.6v-38.6h22.9v37c0,19.3-1.7,32.9-5.2,40.7c-2.1,5.4-5.1,10.7-8.9,15.9
			c-7.2,9.5-17.6,16.1-31,19.9c-4,1.2-7.9,1.8-11.6,1.8h-4.2c-11,0-21.5-3.9-31.5-11.8c-15.5-13.6-23.2-35-23.2-64.3V598.9z"/>
		<path d="M370.8,598.9h23v10h0.3c9.7-6.7,21.1-10,34.3-10c25.6,0,43.4,11.5,53.4,34.6c2.9,7.6,4.3,14.9,4.3,22.2v58.5h-23v-57.7
			c0-9.3-3-17.4-8.9-24.5c-6.2-6.7-14.8-10-25.9-10c-15.8,0-26.4,6.8-31.8,20.4c-1.8,4.8-2.8,9.8-2.8,14.9v57h-23V598.9H370.8z"/>
		<path d="M507.5,568c5.5,0,9.1,3,11,9.1l0.3,2.6c0,5.3-2.9,9-8.6,11.1l-2.3,0.2h-1c-5.2,0-8.8-2.9-10.8-8.6l-0.3-2.3v-0.8
			c0-5.3,2.8-8.9,8.3-10.8L507.5,568z M495.9,598.9h23v115.2h-23V598.9z"/>
		<path d="M586.7,598.9c18.5,0,34,8,46.6,23.9l0.6,1c-12.1,9.1-18.3,13.7-18.7,13.7c-7.3-10.4-17-15.7-29.3-15.7
			c-11.6,0-21.4,5.6-29.3,16.6c-3.3,6.2-5,12.2-5,18.1c0,12.4,6,22.5,17.9,30.2c5.6,2.9,11.2,4.3,16.8,4.3
			c11.6,0,21.3-5.2,29.1-15.7l18.4,13.7c-1.1,2.4-4.8,6.4-11.1,12c-10.8,8.6-22.8,12.9-35.9,12.9h-0.6c-18.1,0-33.3-7.5-45.7-22.5
			c-7.9-10.8-11.8-22.6-11.8-35.3c0-16.2,6.3-30.4,18.9-42.7C558.9,603.9,572,598.9,586.7,598.9z"/>
		<path d="M694.7,598.9c15.1,0,28.6,5.6,40.4,16.9c11.2,11.9,16.8,25.5,16.8,40.8c0,16-6.2,30.1-18.6,42.4
			c-11.4,10.1-24.4,15.2-38.8,15.2H694c-17.1,0-31.8-6.8-43.9-20.4c-9.1-11.4-13.6-23.7-13.6-37.1c0-11.6,3.4-22.6,10.3-33
			C659.2,607.3,675.2,598.9,694.7,598.9z M659.7,654.8v1.5l-0.3,0.3l0.3,0.2v1.6c0,9.3,4.4,18,13.3,25.9c6.8,4.7,13.8,7.1,21.2,7.1
			c11.4,0,20.8-4.9,28.3-14.6c4.4-6.5,6.6-13.2,6.6-20c0-12-5.6-21.9-16.6-29.7c-6-3.3-12.3-5-18.7-5c-11.5,0-21.1,5.4-28.8,16.2
			C661.5,643.9,659.7,649.5,659.7,654.8z"/>
		<path d="M761.7,598.9h23V612h0.3c12.2-8.7,27.5-13.1,45.8-13.1v23c-22.2,0-36.6,7.7-43.3,23.2c-1.8,4.5-2.8,8.7-2.8,12.6v56.4h-23
			V598.9z"/>
		<path d="M840.7,598.9h23v10h0.3c9.7-6.7,21.1-10,34.3-10c25.6,0,43.4,11.5,53.4,34.6c2.9,7.6,4.3,14.9,4.3,22.2v58.5h-23v-57.7
			c0-9.3-3-17.4-8.9-24.5c-6.2-6.7-14.8-10-25.9-10c-15.8,0-26.4,6.8-31.8,20.4c-1.8,4.8-2.8,9.8-2.8,14.9v57h-23V598.9H840.7z"/>
	</g>
</g>
</svg>
