<?xml version="1.0" encoding="utf-8"?>
<!-- Generator: Adobe Illustrator 19.0.0, SVG Export Plug-In . SVG Version: 6.00 Build 0)  -->
<svg version="1.1" xmlns="http://www.w3.org/2000/svg" xmlns:xlink="http://www.w3.org/1999/xlink" x="0px" y="0px"
	 viewBox="-93.2 51.8 2856.3 699.1" style="enable-background:new -93.2 51.8 2856.3 699.1;" xml:space="preserve">
<style type="text/css">
	.st0{fill:#67B9CC;}
	.st1{fill:none;stroke:#894B9D;stroke-width:20;stroke-miterlimit:10;}
	.st2{fill:none;stroke:#F3D55B;stroke-width:20;stroke-miterlimit:10;}
	.st3{fill:none;stroke:#35495E;stroke-width:20;stroke-miterlimit:10;}
	.st4{fill:none;stroke:#D1D4D1;stroke-width:20;stroke-miterlimit:10;}
	.st5{fill:#FF5364;}
	.st6{fill:#DF4D60;}
	.st7{fill:#F3D55B;}
	.st8{fill:#D1D4D1;}
	.st9{fill:#955BA5;}
	.st10{fill:#894B9D;}
	.st11{fill:#ECF0F1;}
	.st12{fill:#547580;}
	.st13{fill:#802D40;}
	.st14{fill:#35495E;}
	.st15{display:none;fill:#67B9CC;}
	.st16{fill:none;}
</style>
<g id="Ebene_2">
	<g>
		<g>
			<circle class="st0" cx="410.8" cy="398.8" r="56.7"/>
			
				<ellipse transform="matrix(0.278 0.9606 -0.9606 0.278 679.6508 -106.69)" class="st1" cx="410.8" cy="398.8" rx="81.1" ry="210.3"/>
			
				<ellipse transform="matrix(0.9709 0.2396 -0.2396 0.9709 107.489 -86.7988)" class="st2" cx="410.8" cy="398.8" rx="81.1" ry="210.3"/>
			
				<ellipse transform="matrix(0.6929 -0.721 0.721 0.6929 -161.3656 418.6534)" class="st3" cx="410.8" cy="398.8" rx="81.1" ry="210.3"/>
		</g>
		<circle class="st4" cx="410.8" cy="398.8" r="245.8"/>
	</g>
</g>
<g id="Ebene_1">
	<g id="_x30_06---Nervous-Unicorn_2_">
		<path id="Path_26_" class="st5" d="M399.9,626.5c-97.1,0-123.6-114.8-88.3-194.2c27.5-61.7,12.3-102,4.1-117.1
			c-2-3.6-1.2-8.2,2-10.9c9.5-8.2,16.6-19,20.3-31c0.9-2.7,1.4-5.5,1.4-8.4c94.5,7.8,77.4,124.6,60.4,167.3
			c-17.7,44.1,0,79.4,35.3,79.4c6.8,0.4,13.5-1.9,18.6-6.5c5.1-4.6,8-11,8.3-17.9c0.5-3.4,3-6.3,6.4-7.2c3.4-0.9,7,0.2,9.2,2.9
			c11.7,12.7,18.5,29.1,19.4,46.3c0,35,0,96.2-95,97.1H399.9L399.9,626.5z"/>
		<path id="Shape_6_" class="st6" d="M408.7,591.2c-22.4-0.3-43.2-11.6-55.7-30.2c-20.6-30.9-26-69.6-14.5-104.9
			c1.7-5.1,3.5-10.3,5.4-15.7c16.7-47.3,35.7-100.9-18.9-143.8c-2.5-1.9-3.7-5.1-3.3-8.2c0.4-3.1,2.5-5.8,5.5-6.9
			c2.9-1.2,6.3-0.7,8.7,1.3c64.6,50.7,41.6,116,24.7,163.6c-1.8,5.3-3.6,10.4-5.3,15.4c-9.6,30-5.2,62.7,12,89.1
			c9.2,14,24.7,22.6,41.4,22.9c42.4,0,44.1-31.7,44.1-35.4c0-4.9,4-8.8,8.8-8.8c4.9,0,8.8,4,8.8,8.8
			C470.5,556.6,457.6,591.2,408.7,591.2L408.7,591.2z"/>
		<path id="Path_12_" class="st0" d="M223.3,185.1c56,0,78.7,33.3,85.6,47.1c-9.8,1-18.6,6.4-23.8,14.7c-2.2,2.9-4.3,5.6-6.5,8.1
			c-10.4-9.5-23.6-15.5-37.6-16.9c-3.5,0-7.1,0.3-10.6,0.9c0.4-1.5,0.7-2.8,1-4c0.7-3.4-0.7-6.8-3.5-8.8l-47.4-33.9
			C194.2,187.5,208.7,185,223.3,185.1z"/>
		<path id="Path_11_" class="st0" d="M131.8,225.1c3.9-4.5,8.1-8.6,12.7-12.4l18.5,37.1c-13,19.2-16.8,43.2-10.3,65.4
			c-16.2,8.8-37.4,5.7-42.9-19.8v-0.1c-0.9-4.3-1.3-8.7-1.2-13.2v-0.8C109.6,260.6,117.8,240.7,131.8,225.1z"/>
		<path id="Path_10_" class="st7" d="M180.4,192.3l47.4,33.9c2.8,2,4.2,5.4,3.5,8.8c-0.3,1.1-0.6,2.5-1,4c-6.1,0.9-12,2.7-17.6,5.3
			c-4.3,2-8.3,4.6-11.9,7.8c-8.2,7.3-12.8,17.7-12.8,28.6c-0.7,0.3-1.2,0.4-1.9,0.5c-4,1-8.1-1-9.9-4.7l-31.9-63.7L108.6,141
			L180.4,192.3z"/>
		<path id="Path_9_" class="st8" d="M108.6,211.6c9.8-0.8,19,4.6,23.2,13.5c-14,15.5-22.2,35.4-23.2,56.3
			c-16.6-2.7-28.2-17.8-26.5-34.5C82.1,238.1,82.1,211.6,108.6,211.6z"/>
		<path id="Path_8_" class="st9" d="M188.1,280.7c0-10.9,4.6-21.3,12.8-28.6c3.6-3.1,7.6-5.8,11.9-7.8c5.6-2.6,11.5-4.4,17.6-5.3
			c3.5-0.6,7-0.9,10.6-0.9c14,1.5,27.2,7.4,37.6,16.9c-10.9,13.4-24.2,24.5-39.3,32.8c-1.1,31.7,19.3,38.5,19.3,38.5
			c-7.4,6.1-16.9,9.3-26.5,8.8c-9.5-0.4-18.5-4.1-25.6-10.5c-12.3-10.6-19.1-26.2-18.5-42.5C188,281.7,188,281.2,188.1,280.7z"/>
		<path id="Path_7_" class="st10" d="M152.7,315.3c-6.5-22.3-2.7-46.2,10.3-65.4l13.3,26.7c1.8,3.7,5.9,5.7,9.9,4.7
			c0.6-0.2,1.1-0.3,1.9-0.5c-0.1,0.5-0.1,1.1-0.1,1.6c-0.5,16.2,6.3,31.8,18.5,42.5c-7.6,6.6-17.3,10.3-27.4,10.5
			C167,335,156.3,327,152.7,315.3L152.7,315.3z"/>
		<path id="Path_6_" class="st11" d="M-15,450c0-44.1,17.7-79.4,70.6-114.8c23.1-15.4,41.2-29.1,54.2-39.7
			c5.5,25.5,26.7,28.6,42.9,19.8c3.5,11.7,14.3,19.8,26.5,20c10.1-0.2,19.7-4,27.4-10.5c7.1,6.4,16.1,10.1,25.6,10.5
			c9.6,0.5,19.1-2.7,26.5-8.8c0,0-20.5-6.8-19.3-38.5c15.1-8.3,28.4-19.5,39.3-32.8c2.2-2.5,4.3-5.2,6.5-8.1
			c5.2-8.3,14-13.8,23.8-14.7c16.5-0.8,30.6,16.1,30.5,32.8c0,2.9-0.5,5.7-1.4,8.4c-3.7,12-10.8,22.7-20.3,31c-3.2,2.7-4,7.2-2,10.9
			c8.1,15,23.3,55.3-4.1,117.1c-35.3,79.4-8.8,194.2,88.3,194.2h2.1c4.2,3.8,7.9,8.1,10.9,12.8c1.8,2.7,1.9,6.2,0.4,9.1
			c-1.6,2.9-4.5,4.6-7.8,4.6h-266c-3.1,0-6-1.6-7.6-4.3s-1.7-6-0.2-8.7c6.3-10.8,13.3-21.2,20.9-31.1c9.1-12.4,14.2-27.3,14.5-42.7
			v-0.3c0.2-6-0.1-11.9-1-17.8c-0.1-0.1-0.1-0.3-0.1-0.4v-0.1c-3.4,1.1-7.1,2.1-10.8,3c-8.2,2-16.5,3.4-24.9,4.2
			c-7.3,0.8-14.6,1.2-21.9,1.1C11.5,555.9-15,494.1-15,450L-15,450z"/>
		<path id="Path_5_" class="st8" d="M221,528c3.3,3.6,3,9.2-0.5,12.5c-15.5,12.6-33.8,21.4-53.3,25.6v-0.3c0.2-6-0.1-11.9-1-17.8
			c15.5-3.7,29.9-10.8,42.4-20.7C212.2,524.2,217.8,524.4,221,528z"/>
		<path id="Shape_2_" class="st12" d="M64.3,423.4c0-4.9,4-9,9-9c0.1-4.9,4.1-8.8,9-8.7c4.9,0.1,8.8,4.1,8.7,9
			c0.1,4.7-1.7,9.3-5.1,12.6c-3.3,3.3-7.9,5.2-12.6,5.1C68.3,432.3,64.3,428.3,64.3,423.4z"/>
		<path id="Shape_1_" class="st12" d="M20.2,405.7c0-4.9,4-9,9-9c0.1-4.9,4.1-8.8,9-8.7s8.8,4.1,8.7,9c0.1,4.7-1.7,9.3-5.1,12.6
			c-3.3,3.3-7.9,5.2-12.6,5.1C24.2,414.7,20.2,410.6,20.2,405.7z"/>
		<path id="Path_4_" class="st13" d="M46.8,467.6h53c4.9,0,8.8,4,8.8,8.8v8.8c0,19.5-15.8,35.3-35.3,35.3S38,504.8,38,485.3v-8.8
			C38,471.6,41.9,467.6,46.8,467.6z"/>
		<path id="Path_3_" class="st14" d="M237.4,423.5c2.4-5.6,3.6-11.6,3.6-17.7c0-19.5-11.8-35.3-26.5-35.3S188,386.3,188,405.8
			c0,6.1,1.2,12.1,3.6,17.7H237.4z"/>
		<path id="Path_2_" class="st8" d="M179.2,423.5c0-4.9,4-8.8,8.8-8.8h53c4.9,0,8.8,4,8.8,8.8s-4,8.8-8.8,8.8h-53
			C183.2,432.3,179.2,428.4,179.2,423.5z"/>
		<path id="Path_1_" class="st15" d="M267.5,467.6c0-3.3-1.9-6.4-4.9-7.9c-3-1.5-6.6-1.2-9.2,0.8l-17.7,13.2
			c-2.2,1.7-3.5,4.3-3.5,7.1v13.2c0,9.8,7.9,17.7,17.7,17.7c9.8,0,17.7-7.9,17.7-17.7L267.5,467.6L267.5,467.6z"/>
		<ellipse id="Oval_4_" class="st11" cx="214.5" cy="392.6" rx="8.8" ry="13.2"/>
		<ellipse id="Oval_1_" class="st5" cx="73.3" cy="502.9" rx="30.5" ry="17.7"/>
	</g>
</g>
<g id="Ebene_3">
	<rect x="-93.2" y="51.8" class="st16" width="2856.3" height="699.1"/>
	<g>
		<path d="M931.4,241.6c27.4,0,53.2,8.6,77.6,25.9v-25.9h51.2v281.9c0,21.2,7.1,40.5,21.3,57.8c13,13.9,31.8,20.9,56.3,20.9v51.2
			h-1.1c-58.3,0-98.1-27.2-119.3-81.5c-5.6-17.1-8.3-32.9-8.3-47.2v-51.2c-24.3,16.8-48.5,25.3-72.5,25.3h-10.1
			c-27.7,0-54.5-10.7-80.4-32.1c-13-12.6-22-23.9-27-33.8c-10.5-20.1-15.8-39.6-15.8-58.4v-6.2c0-35.3,14.1-66.4,42.2-93.4
			C871,252.7,899.7,241.6,931.4,241.6z M854.3,369.3v2.2c0,25.5,11.6,46.7,34.9,63.7c13.2,8.2,26.1,12.3,38.7,12.3h6.8
			c21.4,0,40.5-9.7,57.3-29.2c11.3-14.6,16.9-30.6,16.9-47.9c0-27.1-12.4-49-37.1-65.7c-13.5-7.9-27-11.9-40.4-11.9
			c-25.2,0-46.8,11.6-64.8,34.9C858.4,341.7,854.3,355.5,854.3,369.3z"/>
		<path d="M1083,242.5h51.2v90.1c0.3,55.7,15.7,92.2,46.1,109.6c9.8,4.1,19,6.2,27.5,6.2h3.5c18,0,35.4-7.7,52.3-23.1
			c11.3-12.6,18.6-27.2,22-43.9c2.6-9.5,4-27.1,4-52.7v-86.1h51v82.6c0,43.1-3.9,73.3-11.6,90.7c-4.7,12-11.3,23.8-19.8,35.4
			c-16.1,21.1-39.2,35.9-69.2,44.4c-8.9,2.6-17.6,4-25.9,4h-8.8c-24.6,0-48-8.8-70.3-26.4c-34.6-30.3-51.9-78.1-51.9-143.5V242.5z"
			/>
		<path d="M1362.5,242.5h51.2v22.4h0.7c21.5-14.9,47-22.4,76.5-22.4c57.1,0,96.8,25.7,119.1,77.1c6.4,16.8,9.7,33.3,9.7,49.4v130.5
			h-51.2V370.8c0-20.7-6.6-38.9-19.8-54.7c-13.8-14.9-33-22.4-57.8-22.4c-35.2,0-58.8,15.2-71,45.5c-4.1,10.7-6.2,21.8-6.2,33.2
			v127.2h-51.2V242.5z"/>
		<path d="M1667.5,173.5c12.2,0,20.4,6.7,24.6,20.2l0.7,5.7c0,11.9-6.4,20.1-19.1,24.8l-5.1,0.4h-2.2c-11.6,0-19.6-6.4-24.2-19.1
			l-0.7-5.1v-1.8c0-11.7,6.2-19.8,18.5-24.2L1667.5,173.5z M1641.5,242.5h51.2v257.1h-51.2V242.5z"/>
		<path d="M1844.1,242.5c41.2,0,75.8,17.8,103.9,53.4l1.3,2.2c-27,20.4-40.9,30.5-41.7,30.5c-16.3-23.3-38-34.9-65.3-34.9
			c-25.9,0-47.7,12.4-65.3,37.1c-7.5,13.8-11.2,27.2-11.2,40.4c0,27.7,13.3,50.2,40,67.5c12.4,6.4,25,9.7,37.6,9.7
			c25.9,0,47.5-11.6,64.8-34.9l41.1,30.5c-2.5,5.3-10.8,14.2-24.8,26.8c-24.2,19.2-50.8,28.8-80,28.8h-1.5
			c-40.3,0-74.3-16.7-102-50.1c-17.6-24.2-26.4-50.4-26.4-78.7c0-36.2,14.1-67.9,42.2-95.1C1782.2,253.6,1811.3,242.5,1844.1,242.5z
			"/>
		<path d="M2085.2,242.5c33.7,0,63.7,12.6,90.1,37.8c25,26.5,37.6,56.8,37.6,91c0,35.7-13.8,67.2-41.5,94.5
			c-25.5,22.6-54.3,33.8-86.6,33.8h-1.1c-38.2,0-70.9-15.2-98-45.5c-20.2-25.3-30.3-53-30.3-82.8c0-25.9,7.7-50.5,23.1-73.6
			C2005.9,260.9,2041.5,242.5,2085.2,242.5z M2007.2,366.9v3.3l-0.7,0.7l0.7,0.4v3.5c0,20.8,9.9,40.1,29.7,57.8
			c15.1,10.5,30.8,15.8,47.2,15.8c25.3,0,46.4-10.8,63.1-32.5c9.8-14.5,14.7-29.4,14.7-44.6c0-26.7-12.4-48.8-37.1-66.4
			c-13.5-7.5-27.4-11.2-41.7-11.2c-25.6,0-47,12-64.2,36C2011,342.9,2007.2,355.3,2007.2,366.9z"/>
		<path d="M2234.8,242.5h51.2v29.2h0.7c27.2-19.5,61.3-29.2,102.2-29.2v51.2c-49.5,0-81.7,17.3-96.7,51.9
			c-4.1,10.1-6.2,19.5-6.2,28.1v125.9h-51.2V242.5z"/>
		<path d="M2410.8,242.5h51.2v22.4h0.7c21.5-14.9,47-22.4,76.5-22.4c57.1,0,96.8,25.7,119.1,77.1c6.4,16.8,9.7,33.3,9.7,49.4v130.5
			h-51.2V370.8c0-20.7-6.6-38.9-19.8-54.7c-13.8-14.9-33-22.4-57.8-22.4c-35.2,0-58.8,15.2-71,45.5c-4.1,10.7-6.2,21.8-6.2,33.2
			v127.2h-51.2V242.5z"/>
	</g>
</g>
</svg>
